<svg width="47" height="42" viewBox="0 0 47 42" fill="none" xmlns="http://www.w3.org/2000/svg">
<path d="M2 1.49945C2 1.49945 4.5 1.49849 7 1.49945C8.34743 2.03872 8.54304 3.87889 10.2831 13C11.9046 21.5 13.5 24 16.5 23.9995C25.6095 23.9995 35.6603 23.9995 39.4451 23.9995C40.3629 23.9995 41.1561 23.3749 41.3787 22.4845L45.3787 6.48452C45.6943 5.22223 44.7396 3.99945 43.4384 3.99945H17.5M41 36C41 38.2091 39.2091 40 37 40C34.7909 40 33 38.2091 33 36C33 33.7909 34.7909 32 37 32C39.2091 32 41 33.7909 41 36ZM23 36C23 38.2091 21.2091 40 19 40C16.7909 40 15 38.2091 15 36C15 33.7909 16.7909 32 19 32C21.2091 32 23 33.7909 23 36Z" stroke="#05150F" stroke-width="3" stroke-miterlimit="1" stroke-linecap="round" stroke-linejoin="round"/>
</svg>
