<svg width="38" height="38" viewBox="0 0 38 38" fill="none" xmlns="http://www.w3.org/2000/svg">
<path fill-rule="evenodd" clip-rule="evenodd" d="M3.90213 7.46325L1.01413 4.57561C0.931085 4.49237 0.825194 4.43566 0.709878 4.41266C0.594561 4.38967 0.475013 4.40143 0.366388 4.44645C0.257764 4.49147 0.164955 4.56773 0.099727 4.66555C0.0344993 4.76338 -0.000209433 4.87836 9.50773e-07 4.99594V13.6541C9.50773e-07 13.9818 0.266001 14.2478 0.593751 14.2478H9.253C9.37059 14.248 9.48559 14.2133 9.58343 14.1481C9.68127 14.0828 9.75753 13.99 9.80256 13.8814C9.84759 13.7728 9.85935 13.6533 9.83635 13.538C9.81335 13.4227 9.75663 13.3168 9.67338 13.2338L6.44813 10.0089C8.55056 7.07296 11.6159 4.96692 15.1108 4.05723C18.6058 3.14754 22.3091 3.49179 25.5764 5.03007C28.8437 6.56836 31.4682 9.20332 32.9933 12.4765C34.5184 15.7497 34.8476 19.4539 33.9235 22.9446C32.9994 26.4353 30.8806 29.4917 27.9357 31.5818C24.9907 33.6719 21.4062 34.6636 17.8056 34.3842C14.205 34.1049 10.8163 32.5721 8.22914 30.0528C5.64197 27.5334 4.02007 24.1868 3.64563 20.5953C3.59713 20.1252 3.36382 19.6936 2.99703 19.3954C2.63025 19.0972 2.16003 18.957 1.68981 19.0055C1.2196 19.054 0.787915 19.2873 0.48972 19.654C0.191526 20.0207 0.0512495 20.4909 0.099751 20.961C0.556673 25.3572 2.53211 29.4565 5.686 32.5533C8.83988 35.6502 12.9749 37.5507 17.3791 37.9278C21.7834 38.3048 26.1813 37.1349 29.8159 34.6193C33.4504 32.1037 36.0941 28.3998 37.2918 24.1453C38.4896 19.8909 38.1665 15.352 36.3781 11.31C34.5897 7.26811 31.4479 3.97604 27.4936 2.00056C23.5394 0.0250832 19.02 -0.510198 14.7136 0.486869C10.4072 1.48394 6.58311 3.95096 3.89975 7.46325H3.90213ZM18.4063 9.49837C18.8787 9.49837 19.3317 9.68601 19.6658 10.02C19.9998 10.354 20.1875 10.807 20.1875 11.2794V18.3845L25.004 20.3127C25.4285 20.4978 25.7642 20.8407 25.94 21.269C26.1158 21.6973 26.118 22.1772 25.946 22.6071C25.774 23.0369 25.4413 23.3828 25.0185 23.5716C24.5957 23.7604 24.1161 23.7772 23.6811 23.6183L17.7436 21.2436C17.4134 21.1113 17.1304 20.8832 16.931 20.5886C16.7317 20.294 16.6251 19.9465 16.625 19.5908V11.2794C16.625 10.807 16.8127 10.354 17.1467 10.02C17.4808 9.68601 17.9338 9.49837 18.4063 9.49837Z" fill="#464646" fill-opacity="0.5"/>
</svg>
