<svg width="31" height="31" viewBox="0 0 31 31" fill="none" xmlns="http://www.w3.org/2000/svg">
<path d="M15.4998 11.1253C14.3395 11.1253 13.2267 11.5863 12.4062 12.4067C11.5858 13.2272 11.1248 14.34 11.1248 15.5003C11.1248 16.6606 11.5858 17.7734 12.4062 18.5939C13.2267 19.4144 14.3395 19.8753 15.4998 19.8753C16.6602 19.8753 17.773 19.4144 18.5934 18.5939C19.4139 17.7734 19.8748 16.6606 19.8748 15.5003C19.8748 14.34 19.4139 13.2272 18.5934 12.4067C17.773 11.5863 16.6602 11.1253 15.4998 11.1253ZM15.4998 8.20866C17.4337 8.20866 19.2884 8.97689 20.6558 10.3443C22.0233 11.7118 22.7915 13.5665 22.7915 15.5003C22.7915 17.4342 22.0233 19.2889 20.6558 20.6563C19.2884 22.0238 17.4337 22.792 15.4998 22.792C13.566 22.792 11.7113 22.0238 10.3439 20.6563C8.9764 19.2889 8.20817 17.4342 8.20817 15.5003C8.20817 13.5665 8.9764 11.7118 10.3439 10.3443C11.7113 8.97689 13.566 8.20866 15.4998 8.20866ZM24.979 7.84408C24.979 8.32754 24.7869 8.79121 24.4451 9.13307C24.1032 9.47493 23.6396 9.66699 23.1561 9.66699C22.6726 9.66699 22.209 9.47493 21.8671 9.13307C21.5252 8.79121 21.3332 8.32754 21.3332 7.84408C21.3332 7.36061 21.5252 6.89694 21.8671 6.55508C22.209 6.21322 22.6726 6.02116 23.1561 6.02116C23.6396 6.02116 24.1032 6.21322 24.4451 6.55508C24.7869 6.89694 24.979 7.36061 24.979 7.84408ZM15.4998 3.83366C11.8919 3.83366 11.3028 3.84387 9.62421 3.91824C8.48088 3.9722 7.7138 4.12533 7.00213 4.40241C6.36921 4.64741 5.91275 4.94053 5.42713 5.42762C4.97068 5.86862 4.61973 6.40701 4.40046 7.00262C4.12338 7.7172 3.97025 8.48283 3.91775 9.6247C3.84192 11.2347 3.83317 11.7976 3.83317 15.5003C3.83317 19.1082 3.84338 19.6974 3.91775 21.3759C3.97171 22.5178 4.12484 23.2864 4.40046 23.9966C4.64838 24.6309 4.94005 25.0874 5.42421 25.5716C5.91567 26.0616 6.37213 26.3547 6.99921 26.5968C7.71963 26.8753 8.48671 27.0299 9.62421 27.0824C11.2342 27.1582 11.7971 27.167 15.4998 27.167C19.1078 27.167 19.6969 27.1568 21.3755 27.0824C22.5159 27.0284 23.2844 26.8753 23.9961 26.5997C24.6275 26.3532 25.0869 26.0601 25.5711 25.576C26.0625 25.0845 26.3557 24.628 26.5978 24.0009C26.8748 23.282 27.0294 22.5134 27.0819 21.3759C27.1578 19.7659 27.1665 19.203 27.1665 15.5003C27.1665 11.8924 27.1563 11.3032 27.0819 9.6247C27.028 8.48428 26.8748 7.71428 26.5978 7.00262C26.378 6.40762 26.0277 5.86943 25.5725 5.42762C25.1317 4.97093 24.5933 4.61994 23.9975 4.40095C23.283 4.12387 22.5159 3.97074 21.3755 3.91824C19.7655 3.84241 19.2025 3.83366 15.4998 3.83366ZM15.4998 0.916992C19.4621 0.916992 19.9565 0.931575 21.5111 1.00449C23.0642 1.07741 24.1215 1.32095 25.0519 1.68262C26.0144 2.05303 26.8253 2.5547 27.6361 3.36408C28.3776 4.09309 28.9514 4.97493 29.3175 5.94824C29.6778 6.8772 29.9228 7.93595 29.9957 9.48907C30.0642 11.0437 30.0832 11.538 30.0832 15.5003C30.0832 19.4626 30.0686 19.957 29.9957 21.5116C29.9228 23.0647 29.6778 24.122 29.3175 25.0524C28.9525 26.0262 28.3786 26.9083 27.6361 27.6366C26.9069 28.3779 26.0251 28.9516 25.0519 29.318C24.123 29.6782 23.0642 29.9232 21.5111 29.9962C19.9565 30.0647 19.4621 30.0837 15.4998 30.0837C11.5375 30.0837 11.0432 30.0691 9.48859 29.9962C7.93546 29.9232 6.87817 29.6782 5.94775 29.318C4.97406 28.9527 4.09206 28.3788 3.36359 27.6366C2.62189 26.9077 2.04807 26.0258 1.68213 25.0524C1.32046 24.1234 1.07692 23.0647 1.004 21.5116C0.935462 19.957 0.916504 19.4626 0.916504 15.5003C0.916504 11.538 0.931087 11.0437 1.004 9.48907C1.07692 7.93449 1.32046 6.87866 1.68213 5.94824C2.04706 4.97434 2.62101 4.09225 3.36359 3.36408C4.09227 2.62212 4.97421 2.04826 5.94775 1.68262C6.87817 1.32095 7.934 1.07741 9.48859 1.00449C11.0432 0.93595 11.5375 0.916992 15.4998 0.916992Z" fill="#464646"/>
</svg>
