<svg width="48" height="48" viewBox="0 0 48 48" fill="none" xmlns="http://www.w3.org/2000/svg">
<path d="M48 23.976C48 10.74 37.248 0 24 0C10.752 0 0 10.74 0 23.976C0 31.266 3.312 37.836 8.496 42.246C8.544 42.294 8.592 42.294 8.592 42.342C9.024 42.678 9.456 43.014 9.936 43.35C10.176 43.494 10.368 43.683 10.608 43.875C14.5742 46.5641 19.2561 48.0011 24.048 48C28.8399 48.0011 33.5218 46.5641 37.488 43.875C37.728 43.731 37.92 43.542 38.16 43.395C38.592 43.062 39.072 42.726 39.504 42.39C39.552 42.342 39.6 42.342 39.6 42.294C44.688 37.833 48 31.266 48 23.976ZM24 44.979C19.488 44.979 15.36 43.539 11.952 41.142C12 40.758 12.096 40.377 12.192 39.993C12.478 38.9523 12.8975 37.953 13.44 37.02C13.968 36.108 14.592 35.292 15.36 34.572C16.08 33.852 16.944 33.183 17.808 32.655C18.72 32.127 19.68 31.743 20.736 31.455C21.8002 31.1681 22.8978 31.0239 24 31.026C27.272 31.0028 30.4237 32.2579 32.784 34.524C33.888 35.628 34.752 36.924 35.376 38.409C35.712 39.273 35.952 40.185 36.096 41.142C32.5535 43.6325 28.3303 44.9721 24 44.979ZM16.656 22.779C16.2331 21.8107 16.0204 20.7636 16.032 19.707C16.032 18.654 16.224 17.598 16.656 16.638C17.088 15.678 17.664 14.817 18.384 14.097C19.104 13.377 19.968 12.804 20.928 12.372C21.888 11.94 22.944 11.748 24 11.748C25.104 11.748 26.112 11.94 27.072 12.372C28.032 12.804 28.896 13.38 29.616 14.097C30.336 14.817 30.912 15.681 31.344 16.638C31.776 17.598 31.968 18.654 31.968 19.707C31.968 20.811 31.776 21.819 31.344 22.776C30.9271 23.7218 30.3415 24.5838 29.616 25.32C28.8796 26.0445 28.0176 26.629 27.072 27.045C25.0885 27.8601 22.8635 27.8601 20.88 27.045C19.9344 26.629 19.0724 26.0445 18.336 25.32C17.6094 24.5946 17.0379 23.7321 16.656 22.779ZM38.928 38.697C38.928 38.601 38.88 38.553 38.88 38.457C38.4079 36.9553 37.7121 35.5333 36.816 34.239C35.9191 32.9351 34.8168 31.7852 33.552 30.834C32.5861 30.1073 31.5391 29.4952 30.432 29.01C30.9356 28.6777 31.4023 28.2925 31.824 27.861C32.5396 27.1545 33.1681 26.3649 33.696 25.509C34.7591 23.7624 35.3081 21.7515 35.28 19.707C35.2948 18.1935 35.0009 16.693 34.416 15.297C33.8386 13.9519 33.0074 12.7307 31.968 11.7C30.9301 10.6801 29.7086 9.86577 28.368 9.3C26.9697 8.71618 25.4672 8.42323 23.952 8.439C22.4366 8.42418 20.9341 8.71815 19.536 9.303C18.1838 9.86756 16.9593 10.6992 15.936 11.748C14.9161 12.7848 14.1018 14.0053 13.536 15.345C12.9511 16.741 12.6572 18.2415 12.672 19.755C12.672 20.811 12.816 21.819 13.104 22.776C13.392 23.784 13.776 24.696 14.304 25.557C14.784 26.421 15.456 27.189 16.176 27.909C16.608 28.341 17.088 28.722 17.616 29.058C16.5055 29.5562 15.4582 30.1846 14.496 30.93C13.248 31.89 12.144 33.039 11.232 34.287C10.3268 35.5759 9.63024 36.9993 9.168 38.505C9.12 38.601 9.12 38.697 9.12 38.745C5.328 34.908 2.976 29.73 2.976 23.976C2.976 12.42 12.432 2.973 24 2.973C35.568 2.973 45.024 12.42 45.024 23.976C45.0177 29.4959 42.826 34.7887 38.928 38.697Z" fill="#05150F"/>
</svg>
