<svg width="368" height="71" viewBox="0 0 368 71" fill="none" xmlns="http://www.w3.org/2000/svg">
<path d="M12.9957 65.0699C8.76677 66.9922 3 65.4544 3 65.4544L35.2939 20.858M12.9957 65.0699C16.0714 63.1477 17.9936 60.4565 17.9936 60.4565M12.9957 65.0699C12.9957 65.0699 17.6092 68.53 19.5314 68.53C20.6848 68.53 26.8236 59.3032 26.8236 59.3032M17.9936 60.4565L31.065 43.1363M17.9936 60.4565C30.2961 63.8967 48.5575 31.6227 45.6741 25.8559C42.0218 18.5513 35.2939 20.858 35.2939 20.858M35.2939 20.858L39.9074 14.7068C39.9074 14.7068 41.4452 12.7646 41.8673 8.92013C42.1068 6.73987 41.4452 2 41.4452 2C41.4452 2 46.9144 2 48.7497 2C56.4388 2 57.2077 7.74689 57.2077 7.74689C57.2077 7.74689 61.0522 7.46188 62.9745 9.34436C64.8967 11.2268 64.8967 13.9578 64.8967 13.9578C64.8967 13.9578 64.1573 13.5534 62.2056 13.5534C60.4039 13.5534 58.9643 13.5105 56.4388 14.7068C50.672 17.4384 55.2854 23.1448 54.901 27.3738C54.2658 30.232 54.1321 39.6763 37.7608 60.0721M26.8236 59.3032L28.9505 56.612L33.4486 60.0721M26.8236 59.3032L31.6354 63.1477M36.4473 66.9922H27.6049M36.4473 66.9922H41.8296H46.443M36.4473 66.9922L31.6354 63.1477M31.6354 63.1477L33.4486 60.0721M33.4486 60.0721C33.4486 60.0721 34.6984 61.2533 35.6784 61.2254C36.6077 61.199 37.7608 60.0721 37.7608 60.0721M37.7608 60.0721C41.1514 62.7745 46.443 66.9922 46.443 66.9922M46.443 66.9922H56.8232" stroke="#05150F" stroke-width="3"/>
<path d="M51.4407 6.61297C50.7529 6.2691 48.7495 6.22852 48.7495 6.22852C48.7495 6.22852 49.5184 7.38187 50.6718 7.76632C51.8251 8.15077 52.594 8.15077 52.594 8.15077C52.594 8.15077 52.2096 6.99742 51.4407 6.61297Z" stroke="#05150F" stroke-width="3" stroke-linecap="square"/>
<path d="M102.808 58.672C100.248 58.672 97.8 58.256 95.464 57.424C93.128 56.592 91.144 55.248 89.512 53.392C87.912 51.504 86.968 49.072 86.68 46.096H93.832C94.376 48.496 95.464 50.208 97.096 51.232C98.728 52.256 100.648 52.768 102.856 52.768C104.872 52.768 106.488 52.352 107.704 51.52C108.92 50.656 109.528 49.392 109.528 47.728C109.528 46.544 109.144 45.6 108.376 44.896C107.608 44.16 106.632 43.616 105.448 43.264C104.296 42.88 102.712 42.464 100.696 42.016C97.944 41.408 95.72 40.784 94.024 40.144C92.36 39.504 90.92 38.496 89.704 37.12C88.488 35.744 87.88 33.856 87.88 31.456C87.88 29.152 88.44 27.2 89.56 25.6C90.68 23.968 92.216 22.752 94.168 21.952C96.12 21.12 98.344 20.704 100.84 20.704C103.272 20.704 105.528 21.136 107.608 22C109.688 22.832 111.432 24.128 112.84 25.888C114.248 27.616 115.144 29.744 115.528 32.272H108.472C108.024 30.384 107.096 28.976 105.688 28.048C104.312 27.088 102.648 26.608 100.696 26.608C98.904 26.608 97.464 26.992 96.376 27.76C95.288 28.496 94.744 29.536 94.744 30.88C94.744 31.936 95.112 32.784 95.848 33.424C96.584 34.064 97.496 34.56 98.584 34.912C99.672 35.264 101.192 35.664 103.144 36.112C105.928 36.72 108.2 37.36 109.96 38.032C111.752 38.704 113.288 39.792 114.568 41.296C115.848 42.8 116.488 44.832 116.488 47.392C116.488 50.88 115.272 53.632 112.84 55.648C110.44 57.664 107.096 58.672 102.808 58.672ZM149.91 58H142.566L136.758 43.36H128.598V58H121.686V21.376H137.478C141.062 21.376 143.894 22.272 145.974 24.064C148.054 25.824 149.094 28.528 149.094 32.176C149.094 34.544 148.582 36.576 147.558 38.272C146.566 39.968 145.158 41.248 143.334 42.112L149.91 58ZM128.598 27.568V37.312H136.518C138.374 37.312 139.782 36.896 140.742 36.064C141.734 35.232 142.23 34.016 142.23 32.416C142.23 30.848 141.734 29.648 140.742 28.816C139.75 27.984 138.342 27.568 136.518 27.568H128.598ZM161.692 58H154.78V21.376H161.692V58ZM178.341 58V51.808H182.997C184.245 51.808 185.173 51.52 185.781 50.944C186.421 50.336 186.741 49.392 186.741 48.112V21.376H193.653V48.208C193.653 50.64 193.301 52.56 192.597 53.968C191.925 55.376 190.821 56.4 189.285 57.04C187.749 57.68 185.653 58 182.997 58H178.341ZM203.818 58H196.57L209.482 21.376H217.066L229.978 58H222.73L220.234 50.464H206.266L203.818 58ZM213.274 28.912L208.234 44.416H218.314L213.274 28.912ZM246.401 58H239.153V43.648L225.809 21.376H233.873L242.753 36.928L251.681 21.376H259.697L246.401 43.648V58ZM262.787 58H255.539L268.451 21.376H276.035L288.947 58H281.699L279.203 50.464H265.235L262.787 58ZM272.243 28.912L267.203 44.416H277.283L272.243 28.912ZM305.389 58V21.376H321.181C324.765 21.376 327.597 22.272 329.677 24.064C331.757 25.824 332.797 28.528 332.797 32.176C332.797 34.48 332.301 36.48 331.309 38.176C330.349 39.84 328.989 41.12 327.229 42.016C325.501 42.912 323.485 43.36 321.181 43.36H312.301V58H305.389ZM320.221 37.312C322.077 37.312 323.485 36.896 324.445 36.064C325.437 35.232 325.933 34.016 325.933 32.416C325.933 30.848 325.437 29.648 324.445 28.816C323.453 27.984 322.045 27.568 320.221 27.568H312.301V37.312H320.221ZM351.902 58.672C349.342 58.672 346.894 58.256 344.558 57.424C342.222 56.592 340.238 55.248 338.606 53.392C337.006 51.504 336.062 49.072 335.774 46.096H342.926C343.47 48.496 344.558 50.208 346.19 51.232C347.822 52.256 349.742 52.768 351.95 52.768C353.966 52.768 355.582 52.352 356.798 51.52C358.014 50.656 358.622 49.392 358.622 47.728C358.622 46.544 358.238 45.6 357.47 44.896C356.702 44.16 355.726 43.616 354.542 43.264C353.39 42.88 351.806 42.464 349.79 42.016C347.038 41.408 344.814 40.784 343.118 40.144C341.454 39.504 340.014 38.496 338.798 37.12C337.582 35.744 336.974 33.856 336.974 31.456C336.974 29.152 337.534 27.2 338.654 25.6C339.774 23.968 341.31 22.752 343.262 21.952C345.214 21.12 347.438 20.704 349.934 20.704C352.366 20.704 354.622 21.136 356.702 22C358.782 22.832 360.526 24.128 361.934 25.888C363.342 27.616 364.238 29.744 364.622 32.272H357.566C357.118 30.384 356.19 28.976 354.782 28.048C353.406 27.088 351.742 26.608 349.79 26.608C347.998 26.608 346.558 26.992 345.47 27.76C344.382 28.496 343.838 29.536 343.838 30.88C343.838 31.936 344.206 32.784 344.942 33.424C345.678 34.064 346.59 34.56 347.678 34.912C348.766 35.264 350.286 35.664 352.238 36.112C355.022 36.72 357.294 37.36 359.054 38.032C360.846 38.704 362.382 39.792 363.662 41.296C364.942 42.8 365.582 44.832 365.582 47.392C365.582 50.88 364.366 53.632 361.934 55.648C359.534 57.664 356.19 58.672 351.902 58.672Z" fill="#05150F"/>
</svg>
